<?xml version="1.0" standalone="no"?>
<!DOCTYPE svg PUBLIC "-//W3C//DTD SVG 20010904//EN"
 "http://www.w3.org/TR/2001/REC-SVG-20010904/DTD/svg10.dtd">
<svg version="1.0" xmlns="http://www.w3.org/2000/svg"
 width="400.000000pt" height="400.000000pt" viewBox="0 0 400.000000 400.000000"
 preserveAspectRatio="xMidYMid meet">
<metadata>
Created by potrace 1.11, written by Peter Selinger 2001-2013
</metadata>
<g transform="translate(0.000000,400.000000) scale(0.100000,-0.100000)"
fill="#000000" stroke="none">
<path d="M1791 3989 c-271 -29 -561 -126 -799 -267 -144 -86 -240 -160 -371
-287 -180 -175 -304 -345 -411 -567 -334 -691 -244 -1500 235 -2113 78 -99
264 -281 368 -359 395 -295 900 -435 1388 -386 234 24 486 97 689 199 205 103
331 193 499 356 180 175 304 345 411 567 334 691 244 1500 -235 2113 -78 99
-264 281 -368 359 -399 297 -908 437 -1406 385z m427 -959 c292 -81 476 -325
548 -725 25 -140 25 -470 0 -610 -60 -332 -206 -569 -416 -675 -108 -54 -200
-74 -345 -74 -145 0 -237 20 -344 73 -294 149 -457 542 -438 1056 9 241 50
421 130 579 120 232 288 358 532 397 79 13 251 2 333 -21z"/>
<path d="M1910 2781 c-14 -5 -43 -17 -65 -29 -183 -93 -298 -471 -265 -874 19
-236 -23 -268 355 268 182 257 334 473 338 481 6 10 -8 31 -50 73 -45 45 -70
62 -112 74 -57 17 -157 20 -201 7z"/>
<path d="M2379 2280 c-14 -19 -156 -222 -314 -450 -159 -228 -299 -429 -312
-447 l-24 -32 35 -38 c19 -22 59 -52 88 -69 48 -26 62 -29 148 -29 84 0 102 3
152 28 72 36 120 90 168 192 43 91 72 188 96 325 21 115 21 392 2 490 l-13 65
-26 -35z"/>
</g>
</svg>
