<?xml version="1.0" standalone="no"?>
<!DOCTYPE svg PUBLIC "-//W3C//DTD SVG 20010904//EN"
 "http://www.w3.org/TR/2001/REC-SVG-20010904/DTD/svg10.dtd">
<svg version="1.0" xmlns="http://www.w3.org/2000/svg"
 width="400.000000pt" height="400.000000pt" viewBox="0 0 400.000000 400.000000"
 preserveAspectRatio="xMidYMid meet">
<metadata>
Created by potrace 1.11, written by Peter Selinger 2001-2013
</metadata>
<g transform="translate(0.000000,400.000000) scale(0.100000,-0.100000)"
fill="#000000" stroke="none">
<path d="M1791 3989 c-271 -29 -561 -126 -799 -267 -144 -86 -240 -160 -371
-287 -180 -175 -304 -345 -411 -567 -334 -691 -244 -1500 235 -2113 78 -99
264 -281 368 -359 395 -295 900 -435 1388 -386 234 24 486 97 689 199 205 103
331 193 499 356 180 175 304 345 411 567 334 691 244 1500 -235 2113 -78 99
-264 281 -368 359 -399 297 -908 437 -1406 385z m361 -996 c17 -15 18 -56 18
-875 l0 -858 237 0 c229 0 237 -1 260 -22 21 -19 23 -30 23 -112 0 -78 -3 -93
-22 -113 l-21 -23 -642 0 c-564 0 -643 2 -663 16 -20 14 -22 23 -22 119 0 143
-17 135 282 135 l238 0 0 690 c0 380 -2 690 -4 690 -3 0 -42 -23 -88 -52 -93
-58 -152 -86 -283 -133 -87 -32 -92 -32 -118 -17 -27 17 -27 17 -27 137 l0
120 103 42 c121 51 301 155 383 223 l59 49 134 0 c112 1 138 -2 153 -16z"/>
</g>
</svg>
