<svg xmlns="http://www.w3.org/2000/svg" version="1.0" width="400.000000pt" height="400.000000pt" viewBox="0 0 400.000000 400.000000" preserveAspectRatio="xMidYMid meet">
	<style>
		.color{
			fill: #8B0000;
		}
	</style>

<metadata>Created by potrace 1.11, written by Peter Selinger 2001-2013</metadata>
<g class="color">
	<path d="M179.1 1.1 c-27.1 2.9 -56.1 12.6 -79.9 26.7 -14.4 8.6 -24 16 -37.1 28.7 -18 17.5 -30.4 34.5 -41.1 56.7 -33.4 69.1 -24.4 150 23.5 211.3 7.8 9.9 26.4 28.1 36.8 35.9 39.5 29.5 90 43.5 138.8 38.6 23.4 -2.4 48.6 -9.7 68.9 -19.9 20.5 -10.3 33.1 -19.3 49.9 -35.6 18 -17.5 30.4 -34.5 41.1 -56.7 33.4 -69.1 24.4 -150 -23.5 -211.3 -7.8 -9.9 -26.4 -28.1 -36.8 -35.9 -39.9 -29.7 -90.8 -43.7 -140.6 -38.5zm42.7 95.9c29.2 8.1 47.6 32.5 54.8 72.5 2.5 14 2.5 47 0 61 -6 33.2 -20.6 56.9 -41.6 67.5 -10.8 5.4 -20 7.4 -34.5 7.4 -14.5 -0 -23.7 -2 -34.4 -7.3 -29.4 -14.9 -45.7 -54.2 -43.8 -105.6 0.9 -24.1 5 -42.1 13 -57.9 12 -23.2 28.8 -35.8 53.2 -39.7 7.9 -1.3 25.1 -0.2 33.3 2.1z"/><path d="M191 121.9 c-1.4 0.5 -4.3 1.7 -6.5 2.9 -18.3 9.3 -29.8 47.1 -26.5 87.4 1.9 23.6 -2.3 26.8 35.5 -26.8 18.2 -25.7 33.4 -47.3 33.8 -48.1 0.6 -1 -0.8 -3.1 -5 -7.3 -4.5 -4.5 -7 -6.2 -11.2 -7.4 -5.7 -1.7 -15.7 -2 -20.1 -0.7z"/><path d="M237.9 172 c-1.4 1.9 -15.6 22.2 -31.4 45 -15.9 22.8 -29.9 42.9 -31.2 44.7l-2.4 3.2 3.5 3.8c1.9 2.2 5.9 5.2 8.8 6.9 4.8 2.6 6.2 2.9 14.8 2.9 8.4 -0 10.2 -0.3 15.2 -2.8 7.2 -3.6 12 -9 16.8 -19.2 4.3 -9.1 7.2 -18.8 9.6 -32.5 2.1 -11.5 2.1 -39.2 0.2 -49l-1.3 -6.5 -2.6 3.5z"/></g></svg>