<svg xmlns="http://www.w3.org/2000/svg" version="1.0" width="400.000000pt" height="400.000000pt" viewBox="0 0 400.000000 400.000000" preserveAspectRatio="xMidYMid meet">

	<style>
		.color{
			fill: #00800;
		}
	</style>
<metadata>Created by potrace 1.11, written by Peter Selinger 2001-2013</metadata>
<g class="color">
	<path d="M179.1 1.1 c-27.1 2.9 -56.1 12.6 -79.9 26.7 -14.4 8.6 -24 16 -37.1 28.7 -18 17.5 -30.4 34.5 -41.1 56.7 -33.4 69.1 -24.4 150 23.5 211.3 7.8 9.9 26.4 28.1 36.8 35.9 39.5 29.5 90 43.5 138.8 38.6 23.4 -2.4 48.6 -9.7 68.9 -19.9 20.5 -10.3 33.1 -19.3 49.9 -35.6 18 -17.5 30.4 -34.5 41.1 -56.7 33.4 -69.1 24.4 -150 -23.5 -211.3 -7.8 -9.9 -26.4 -28.1 -36.8 -35.9 -39.9 -29.7 -90.8 -43.7 -140.6 -38.5zm36.1 99.6c1.7 1.5 1.8 5.6 1.8 87.5l0 85.8 23.7 -0c22.9 -0 23.7 0.1 26 2.2 2.1 1.9 2.3 3 2.3 11.2 0 7.8 -0.3 9.3 -2.2 11.3l-2.1 2.3 -64.2 -0c-56.4 -0 -64.3 -0.2 -66.3 -1.6 -2 -1.4 -2.2 -2.3 -2.2 -11.9 0 -14.3 -1.7 -13.5 28.2 -13.5l23.8 -0 0 -69c0 -38 -0.2 -69 -0.4 -69 -0.3 -0 -4.2 2.3 -8.8 5.2 -9.3 5.8 -15.2 8.6 -28.3 13.3 -8.7 3.2 -9.2 3.2 -11.8 1.7 -2.7 -1.7 -2.7 -1.7 -2.7 -13.7l0 -12 10.3 -4.2c12.1 -5.1 30.1 -15.5 38.3 -22.3l5.9 -4.9 13.4 -0c11.2 -0.1 13.8 0.2 15.3 1.6z"/></g></svg>