<?xml version="1.0" standalone="no"?>
<!DOCTYPE svg PUBLIC "-//W3C//DTD SVG 20010904//EN"
 "http://www.w3.org/TR/2001/REC-SVG-20010904/DTD/svg10.dtd">
<svg version="1.0" xmlns="http://www.w3.org/2000/svg"
 width="512.000000pt" height="512.000000pt" viewBox="0 0 512.000000 512.000000"
 preserveAspectRatio="xMidYMid meet">
<metadata>
Created by potrace 1.11, written by Peter Selinger 2001-2013
</metadata>
<g transform="translate(0.000000,512.000000) scale(0.100000,-0.100000)"
fill="#000000" stroke="none">
<path d="M2278 3934 c-49 -15 -171 -131 -1173 -1126 l-250 -248 255 -253
c1103 -1092 1117 -1105 1173 -1122 104 -31 203 11 251 106 l26 53 0 288 0 288
103 -6 c605 -35 980 -177 1315 -498 83 -80 222 -243 258 -305 10 -17 23 -31
28 -31 14 0 -1 365 -19 487 -46 304 -181 624 -363 865 -286 378 -713 645
-1162 728 -63 12 -125 24 -137 26 l-23 4 0 294 0 294 -28 53 c-49 93 -152 136
-254 103z"/>
</g>
</svg>
