<?xml version="1.0" standalone="no"?>
<!DOCTYPE svg PUBLIC "-//W3C//DTD SVG 20010904//EN"
 "http://www.w3.org/TR/2001/REC-SVG-20010904/DTD/svg10.dtd">
<svg version="1.0" xmlns="http://www.w3.org/2000/svg"
 width="512.000000pt" height="512.000000pt" viewBox="0 0 512.000000 512.000000"
 preserveAspectRatio="xMidYMid meet">
<metadata>
Created by potrace 1.11, written by Peter Selinger 2001-2013
</metadata>
<g transform="translate(0.000000,512.000000) scale(0.100000,-0.100000)"
fill="#000000" stroke="none">
<path d="M770 4900 c-141 -18 -257 -77 -365 -185 -88 -88 -130 -156 -167 -275
l-23 -75 0 -1270 c0 -1198 1 -1274 18 -1334 62 -219 220 -384 432 -451 57 -19
101 -24 237 -28 l168 -4 2 -529 3 -529 742 530 741 529 914 3 913 3 70 23
c215 73 370 234 432 453 17 60 18 136 18 1334 l0 1270 -23 75 c-37 119 -79
187 -167 275 -86 86 -153 127 -270 167 l-70 23 -1775 1 c-976 1 -1800 -2
-1830 -6z m3585 -444 c59 -27 77 -46 104 -106 20 -44 21 -60 21 -1250 0 -811
-4 -1217 -11 -1243 -13 -49 -63 -105 -114 -128 -38 -18 -92 -19 -983 -19
l-942 0 -463 -330 c-254 -181 -465 -330 -469 -330 -5 0 -8 149 -8 330 l0 330
-342 0 c-310 0 -347 2 -383 19 -51 23 -101 79 -114 128 -7 26 -11 432 -11
1243 0 1190 1 1206 21 1250 27 60 45 79 104 106 l50 24 1745 0 1745 0 50 -24z"/>
</g>
</svg>
